/* XPM */
static char *result[] = {
/* columns rows colors chars-per-pixel */
"32 32 24 1 ",
"  c #070707",
". c #080803",
"X c #0C0C0D",
"o c #3D2F2C",
"O c #3F2F2D",
"+ c #3E302D",
"@ c #2E3936",
"# c #3C3130",
"$ c #412E2D",
"% c #44273B",
"& c #63352E",
"* c #653F32",
"= c #674132",
"- c #61463C",
"; c #494B44",
": c #585652",
"> c #626464",
", c #956854",
"< c #B27A52",
"1 c #50428D",
"2 c #6651BF",
"3 c #857E87",
"4 c #B6B8BC",
"5 c None",
/* pixels */
"55555555555555555555555555555555",
"55555555555555555555555555555555",
"555555555545555@@555545555555555",
"555555555X3555X@@X5553X555555555",
"555555555X3X5XXXXXX5X3X555555555",
"555555555X33%XXXXXX%33X555555555",
"555555555X>>%,XXXX&%>>X555555555",
"5555555555X;%&XXXX&%;X5555555555",
"555555555XXXX&&XX&&XX55555555555",
"55555555X43.X%&XX&%X555555555555",
"5555555X3;;;X%&XX&%&XX5555555555",
"55555555X:;@X,&XX&<&&&XX55555555",
"5555555X,.@@.,,&&,,<%&&,X5555555",
"5555555X,&&XO;,,,,,&X&&,X5555555",
"555555X,&&X%oO;,,&&o%X&&,X555555",
"55555X<,&X5XO$$;$+$OX5X&,<X55555",
"55555X,&&X55XXXX@XXX55X&&,X55555",
"55555X,&X55 %122222& 55X&,X55555",
"55555X,&X5 &&%2222&&, 5X&,X55555",
"55555X&%X -,,%2222%,,- X%&X55555",
"55555XXX &&,&%2222%&,&& XXX55555",
"55555555 &,&&%2222%&&,& 55555555",
"55555555%&&%%.1221.%%&&%55555555",
"55555555X#...511215...#X55555555",
"55555555X.OOO.1111.OOO.X55555555",
"555555555..&OX1111XO&XX555555555",
"5555555555X&OX5555XO&X5555555555",
"555555555X*=OX5555XO=*X555555555",
"5555555544>>X555555X;;>455555555",
"55555555XXXX55555555XXXX55555555",
"55555555555555555555555555555555",
"55555555555555555555555555555555"
};
