/* XPM */
static char *result[] = {
/* columns rows colors chars-per-pixel */
"32 32 5 1 ",
"  c #263238",
". c #B0120A",
"X c #C41411",
"o c gray88",
"O c None",
/* pixels */
"OOOOOOOOOOOOOOOOOOOOOOOOOOOOOOOO",
"OOOOOOOOOOOOOOOOOOOOOOOOOOOOOOOO",
"OOOOOOOOooooooOOOOooooooOOOOOOOO",
"OOOOOOOOooooooOOOOooooooOOOOOOOO",
"OOOOOOoo      oooo      ooOOOOOO",
"OOOOOOoo      oooo      ooOOOOOO",
"OOOOoo  ......    ......  ooOOOO",
"OOOOoo  ......    ......  ooOOOO",
"OOoo  ..XXXXXX....XXXXXX..  ooOO",
"OOoo  ..XXXXXX....XXXXXX..  ooOO",
"OOoo  ..XXXXXXXXXXXXooXX..  ooOO",
"OOoo  ..XXXXXXXXXXXXooXX..  ooOO",
"OOoo  ..XXXXXXXXXXXXXXXX..  ooOO",
"OOoo  ..XXXXXXXXXXXXXXXX..  ooOO",
"OOoo  ..XXXXXXXXXXXXXXXX..  ooOO",
"OOoo  ..XXXXXXXXXXXXXXXX..  ooOO",
"OOOOoo  ..XXXXXXXXXXXX..  ooOOOO",
"OOOOoo  ..XXXXXXXXXXXX..  ooOOOO",
"OOOOOOoo  ..XXXXXXXX..  ooOOOOOO",
"OOOOOOoo  ..XXXXXXXX..  ooOOOOOO",
"OOOOOOOOoo  ..XXXX..  ooOOOOOOOO",
"OOOOOOOOoo  ..XXXX..  ooOOOOOOOO",
"OOOOOOOOOOoo  ....  ooOOOOOOOOOO",
"OOOOOOOOOOoo  ....  ooOOOOOOOOOO",
"OOOOOOOOOOOOoo    ooOOOOOOOOOOOO",
"OOOOOOOOOOOOoo    ooOOOOOOOOOOOO",
"OOOOOOOOOOOOOOooooOOOOOOOOOOOOOO",
"OOOOOOOOOOOOOOooooOOOOOOOOOOOOOO",
"OOOOOOOOOOOOOOOOOOOOOOOOOOOOOOOO",
"OOOOOOOOOOOOOOOOOOOOOOOOOOOOOOOO",
"OOOOOOOOOOOOOOOOOOOOOOOOOOOOOOOO",
"OOOOOOOOOOOOOOOOOOOOOOOOOOOOOOOO"
};
