/* XPM */
static char *result[] = {
/* columns rows colors chars-per-pixel */
"32 32 10 1 ",
"  c #2E3936",
". c #4A3736",
"X c #494B44",
"o c #585652",
"O c #684A48",
"+ c #745E54",
"@ c #626464",
"# c #8D7462",
"$ c #857E87",
"% c #B6B8BC",
/* pixels */
"X@$@$X@@@@@@@@@@@@@@@@@@@@X@$@$@",
"X@$%$X$$$$$%%%%%$$%%%$$$$$X@$%$@",
"X@$%@X$$$$$$$$$$$$$$$$$$$$X@$%@o",
"Xo@@ooX@@@@@@@@@@@@@@@@@@@Xo@@oo",
"XXXXXXXXXXXXXXXXXXXXXXXXXXXXXXXX",
"Xo@%@oooooooooooooooooooooXo@%@X",
"X@$%$@.ooo.....o.....oo.ooX@$%$@",
"X@$%$@o.oo.ooo.o.ooo.ooo.oX@$%$@",
"X@$$$@.ooo.o...o...o.oo.ooX@$$$@",
"X@$%$@o.oo.ooooooooo.ooo.oX@$%$@",
"X@$$$@.ooo...........oo.ooX@$$$@",
"X@$$$@ooooooooooooooooooooX@$$$@",
"X@$$$@XXXXXXXXXXXXXXXXXXXXX@$$$@",
"Xo@%@X                    Xo@%@X",
"XXXXXX....................XXXXXX",
"X@@$@X...OO..O.........O..X@@$@X",
"X@@$@@...OOO#++##+##++O...X@@$@@",
"X@$%$@....OO#+###+#+++OO..X@$%$@",
"X@$%$@.O..OO#####++#++OO..X@$%$@",
"X@$%$@...OOO+##+####++OOO.X@$%$@",
"X@$$$@...OO++#####+##+O.O.X@$$$@",
"X@$$$@...OO++++#++++++OOO.X@$$$@",
"X@$$$@....OO+++++++++OOO..X@$$$@",
"X@$%$@..OOO++++O+OOOO.OO..X@$%$@",
"X@$%$@...OO.OO++O.OOO..OO.X@$%$@",
"X@$$$@....................X@$$$@",
"XXXXXXXXXXXXXXXXXXXXXXXXXXXXXXXX",
"X@@%@@Xo@@@@@@@@@@@@@@@@oXX@@%@@",
"X@$$$@X@$$$$$$$$$$$$$$$$@oX@$$$@",
"X@$%$@X%%$$%$$$$%%%%$$$%%oX@$%$@",
"Xo@%@oXo$$$$$$$$$$$$$$$$@oXo@%@o",
"XXXXXXXo@@@@@@@@@@@@ooooooXXXXXX"
};
